PathFileType	4	(X/Y/Z)	/Users/niels/Desktop/University/Third Semester/Perception and Action/Exam/Gymnastics Motion Tracking/Code for Gym Tracking/Analyzed Data/Webcam_Backflip/id18_1_trajectory_Sports2D/id18_1_trajectory_Sports2D_px_person00.trc
DataRate	CameraRate	NumFrames	NumMarkers	Units	OrigDataRate	OrigDataStartFrame	OrigNumFrames
29.872340425531917	29.872340425531917	12	22	m	29.872340425531917	117	235
Frame#	Time	Hip			RHip			RKnee			RAnkle			RBigToe			RSmallToe			RHeel			LHip			LKnee			LAnkle			LBigToe			LSmallToe			LHeel			Neck			Head			Nose			RShoulder			RElbow			RWrist			LShoulder			LElbow			LWrist		
		X1	Y1	Z1	X2	Y2	Z2	X3	Y3	Z3	X4	Y4	Z4	X5	Y5	Z5	X6	Y6	Z6	X7	Y7	Z7	X8	Y8	Z8	X9	Y9	Z9	X10	Y10	Z10	X11	Y11	Z11	X12	Y12	Z12	X13	Y13	Z13	X14	Y14	Z14	X15	Y15	Z15	X16	Y16	Z16	X17	Y17	Z17	X18	Y18	Z18	X19	Y19	Z19	X20	Y20	Z20	X21	Y21	Z21	X22	Y22	Z22
117	3.916666666666667	0.8392613275697193	-0.7337282306064916	0.0	0.8167949161316534	-0.7321293161383277	0.0	0.8267593571799955	-0.8139672113606632	0.0	0.8350847703927974	-0.9007049468315204	0.0	0.8366308449102967	-0.9168532840169378	0.0	0.8309595041052922	-0.9170909289339516	0.0	0.8362296233497148	-0.9118356558664509	0.0	0.8610000563751138	-0.7352949303606706	0.0	0.8477279569343587	-0.8265669335099335	0.0	0.8350095582481921	-0.898532355169554	0.0	0.8228371683499415	-0.9268796720607984	0.0	0.8358137665962794	-0.927280954955691	0.0	0.8319573495332686	-0.9021279258064602	0.0	0.845986151017345	-0.6159187336573442	0.0	0.8461719723054769	-0.557121058280613	0.0	0.846692870266371	-0.5954069461113474	0.0	0.805041243510038	-0.6329137319132905	0.0	0.7832917855051645	-0.690949069723246	0.0	0.7710899499879608	-0.7476550514548257	0.0	0.8877520449642216	-0.6282412537433593	0.0	0.9047586977326842	-0.6869398809228229	0.0	0.9216612098518981	-0.7484838255559756	0.0
118	3.9501424501424505	0.8393012599824496	-0.7367876641198101	0.0	0.8167755098478768	-0.7352228603726312	0.0	0.826346094238338	-0.8189777921786956	0.0	0.8350301427703865	-0.9051276165228676	0.0	0.8381378498932099	-0.9212452037176139	0.0	0.8318083828850966	-0.9207234204887785	0.0	0.8361226248783784	-0.9156377018694714	0.0	0.8614913329715409	-0.7382659896132654	0.0	0.8487653715360397	-0.83135361122939	0.0	0.8346000293179217	-0.8997364657963828	0.0	0.8237365543180393	-0.9282819181774886	0.0	0.8354054413228188	-0.9302044559087215	0.0	0.8313287374512005	-0.9015396374699445	0.0	0.8447570579941789	-0.6190481638456317	0.0	0.8446360923007442	-0.5607870778370532	0.0	0.8454660866358423	-0.5990539460937656	0.0	0.803725543402057	-0.6362019102790706	0.0	0.7846140348224081	-0.695979983502434	0.0	0.7708831404592921	-0.7552052515117463	0.0	0.8867628762371705	-0.630239047008986	0.0	0.9021231162163996	-0.6900442788830198	0.0	0.9187317423069111	-0.7519092058454148	0.0
119	3.983618233618234	0.8392076566178687	-0.7359074574020923	0.0	0.8164683700278168	-0.7339689706859777	0.0	0.8256724507402481	-0.8201140578287242	0.0	0.8349853098741831	-0.9059326708110688	0.0	0.8407911388943342	-0.9205535243424972	0.0	0.8328890916646617	-0.9204894656707265	0.0	0.8362361524183877	-0.9164683331457815	0.0	0.8620248038554061	-0.7368223932276345	0.0	0.8509379313278491	-0.8321053777635823	0.0	0.834177045333676	-0.8948462918274208	0.0	0.8262917306556946	-0.9226065415807956	0.0	0.8355074077712992	-0.9247462655218859	0.0	0.8305647014553834	-0.8951922651174643	0.0	0.8433874697280795	-0.6176997621986694	0.0	0.8430467298129517	-0.56023929356748	0.0	0.8442263664436178	-0.5979567852046493	0.0	0.8025106527232218	-0.6348496775831636	0.0	0.7854703179764415	-0.6957406937384264	0.0	0.7709083320184069	-0.7564716587157739	0.0	0.8855207878820687	-0.6277207629401511	0.0	0.8995922490048804	-0.6883272077390269	0.0	0.9150530843488072	-0.7502894439499236	0.0
120	4.017094017094017	0.8389171462144875	-0.7311673668657581	0.0	0.8158179857272257	-0.7285650615837662	0.0	0.8247930395858492	-0.8175506361668905	0.0	0.834943873069008	-0.9033923905577578	0.0	0.8440396762484162	-0.9158507175904924	0.0	0.8340031054493221	-0.9171821997195392	0.0	0.8365025598443571	-0.9146590892136699	0.0	0.8625145967449881	-0.731151781223887	0.0	0.8544614233806469	-0.8288708987129527	0.0	0.834002086836063	-0.8840406330989137	0.0	0.830769543897263	-0.9113463337517165	0.0	0.8369073142843172	-0.9119192596233744	0.0	0.8300442715594132	-0.8831709470043767	0.0	0.8419175924848318	-0.6121231457560914	0.0	0.8414218616666953	-0.5556583853805639	0.0	0.842948752018514	-0.5923614353976849	0.0	0.8014196311552779	-0.6290473859841376	0.0	0.7858686210281837	-0.6905750161401565	0.0	0.77108518515805	-0.7518236854429146	0.0	0.884039541775875	-0.6210567008834125	0.0	0.8973281514661743	-0.6823123674193523	0.0	0.9111884359851465	-0.7442358900084687	0.0
121	4.050569800569801	0.8384298077334787	-0.7231013657077779	0.0	0.8148409806092898	-0.7197636076397868	0.0	0.8237739246270096	-0.8118428661150956	0.0	0.8349184462330176	-0.8982142388618078	0.0	0.8471872891872075	-0.909298656766254	0.0	0.8349437725143113	-0.9121125058214612	0.0	0.8368694466659367	-0.9106872288426195	0.0	0.8628966667562518	-0.7219604494077506	0.0	0.8592682692624287	-0.8219032445322529	0.0	0.834467168007153	-0.8687934291194763	0.0	0.8367870369505929	-0.8969374835109531	0.0	0.8402998022891822	-0.8949239431010159	0.0	0.8301732582746761	-0.867001796147531	0.0	0.84039122126048	-0.6029599810980507	0.0	0.8398267883295855	-0.5475235205279135	0.0	0.8416291210705015	-0.5829881307315871	0.0	0.8002990865040819	-0.6195070946668815	0.0	0.7857333486046547	-0.6814629488725765	0.0	0.7713235692088757	-0.742739514744268	0.0	0.8824319186127321	-0.6110614841707758	0.0	0.89549680962348	-0.6729718460265635	0.0	0.9076167733278728	-0.73479870559627	0.0
122	4.084045584045584	0.8378296124630086	-0.7126383318796612	0.0	0.8136328322584512	-0.7087518101026887	0.0	0.8226689037893806	-0.8039054580293965	0.0	0.834890194920494	-0.8913258910353555	0.0	0.8496591299909412	-0.9026076057982333	0.0	0.8354697607591526	-0.9062884334428997	0.0	0.8372420385476348	-0.9050080471398662	0.0	0.863145762282986	-0.7103432975987036	0.0	0.8649519788592792	-0.8116130578008854	0.0	0.8359291011460253	-0.8516600846640866	0.0	0.8433000876439903	-0.881799348870274	0.0	0.8458174104286266	-0.8773762821867663	0.0	0.831273163279882	-0.8494432595135699	0.0	0.8388485048840104	-0.591176481038312	0.0	0.8383502149565693	-0.5365739160160357	0.0	0.8403070922069066	-0.5708907789513913	0.0	0.7989609838978864	-0.6072857726489658	0.0	0.7849681646663275	-0.6697034106006384	0.0	0.7714816885020143	-0.7311630323526892	0.0	0.8808820310766718	-0.5987821219279389	0.0	0.8942586274150072	-0.6614059647425908	0.0	0.9047416794674465	-0.72319948642796	0.0
123	4.117521367521368	0.8372327952354216	-0.7008510087194079	0.0	0.8123460036571903	-0.6968559091394567	0.0	0.8215589989869746	-0.794809785445233	0.0	0.8348342909512888	-0.8837069888861394	0.0	0.8511297134037451	-0.8964394717555658	0.0	0.8353694912537358	-0.900136880491792	0.0	0.8375217599690894	-0.8981242350083932	0.0	0.8632582731891497	-0.6975446414551135	0.0	0.8708800470141511	-0.7986646703753523	0.0	0.8385083414523065	-0.8354498072616521	0.0	0.8493039125371808	-0.8681014040810578	0.0	0.8528563598933255	-0.8620646890641193	0.0	0.8334909184690159	-0.8334625614229992	0.0	0.8373176491219352	-0.5779138829703115	0.0	0.8370414633173205	-0.5236137398546916	0.0	0.8390084514138302	-0.5572571751173186	0.0	0.7972881731727665	-0.593580749694479	0.0	0.783516973809013	-0.6566273189330857	0.0	0.7713813193961199	-0.7188915623832809	0.0	0.8795736565422182	-0.5853131631934511	0.0	0.8937319634514809	-0.6486446873570868	0.0	0.9028814613880954	-0.7105661739864886	0.0
124	4.150997150997151	0.836732145515436	-0.6887080452213566	0.0	0.8111424759529761	-0.6852111967469945	0.0	0.820589349732199	-0.7855471115325503	0.0	0.8347561805498297	-0.8762814635471403	0.0	0.8516063925090862	-0.8909031828795339	0.0	0.8346286361995583	-0.8938240175469331	0.0	0.8376700643653049	-0.8906893640129169	0.0	0.8632450000071851	-0.6846978899979664	0.0	0.8763945106502844	-0.7839704896824117	0.0	0.842039235370047	-0.8223209558765543	0.0	0.8544346933985344	-0.8575696932983488	0.0	0.8604406730062201	-0.8506822615562027	0.0	0.8367607703938421	-0.8211786079117991	0.0	0.835812511406808	-0.5642637282655759	0.0	0.835864012000934	-0.5094223810444244	0.0	0.837677169796564	-0.5431759667958944	0.0	0.7952497827793267	-0.5795544129689547	0.0	0.7813884230370642	-0.6434168167595001	0.0	0.770872928676581	-0.7072150976005108	0.0	0.8786055841221238	-0.5716960912720667	0.0	0.8939526511164055	-0.6356013517572586	0.0	0.9022073003027894	-0.697775667753937	0.0
125	4.184472934472935	0.8363831367461511	-0.6769956406923111	0.0	0.8101614829297415	-0.6746051523393706	0.0	0.8199317927667441	-0.776936543342414	0.0	0.8346760593940615	-0.8697825691930546	0.0	0.8514215643493109	-0.8861506456269106	0.0	0.8335071457454389	-0.8876160898305246	0.0	0.8376998112121384	-0.8834906573360413	0.0	0.8631275164355595	-0.6726641020553078	0.0	0.8809487012895946	-0.7685410483835855	0.0	0.8462214578787198	-0.813343351346237	0.0	0.8589712407853932	-0.8510301427962373	0.0	0.8677949753934484	-0.8437944566072703	0.0	0.8408484380665173	-0.8135168128448799	0.0	0.8343381386797601	-0.551091703268587	0.0	0.8347100629078223	-0.4948243694029959	0.0	0.8361945896122586	-0.5295103687711239	0.0	0.7928663778493228	-0.5662102609236339	0.0	0.7786628855795208	-0.6309936278540257	0.0	0.7698552404231885	-0.6967549921422708	0.0	0.8779511922969411	-0.5588423436374099	0.0	0.8948351377070823	-0.6230517400508067	0.0	0.9026963160686695	-0.6853920146454296	0.0
126	4.217948717948718	0.836181272166977	-0.666340103138883	0.0	0.8094862684148562	-0.6654981063798491	0.0	0.8197019160084591	-0.7696212887440705	0.0	0.8345999197562385	-0.8646504709355589	0.0	0.8509815727464756	-0.882444155636168	0.0	0.8324008239970586	-0.8820135895040314	0.0	0.8376382521597594	-0.8773407218860914	0.0	0.8629205680223401	-0.6619972186173486	0.0	0.8841447559328209	-0.7533673848028477	0.0	0.8507415141934617	-0.8085465918327391	0.0	0.8633886632059067	-0.8481461534113086	0.0	0.8745472274162077	-0.8408281936684238	0.0	0.8453933946555928	-0.8103639728847842	0.0	0.8328888044376098	-0.5390082712198483	0.0	0.8334649239718719	-0.4807343309924379	0.0	0.834480694686669	-0.5169103301896317	0.0	0.7902032205261004	-0.5543385184126353	0.0	0.7754693935082573	-0.619991947838321	0.0	0.7682400478149115	-0.6875596316537423	0.0	0.8774800986541524	-0.547454021084741	0.0	0.896172869677342	-0.6115907806213535	0.0	0.9041564849474172	-0.6737000260858074	0.0
127	4.251424501424502	0.8360461265353674	-0.6572662590971106	0.0	0.8091135762225808	-0.6581434139706466	0.0	0.8198979094491341	-0.7640719235907226	0.0	0.8345301049198899	-0.8610968695629505	0.0	0.8505607421558803	-0.8799239997015742	0.0	0.8316524829094549	-0.8776017241274691	0.0	0.8375186348646696	-0.8728882437550073	0.0	0.8626283617279598	-0.6530483889730331	0.0	0.8857318139848367	-0.7393937329861212	0.0	0.8552564692493693	-0.8072337512459085	0.0	0.8678063294248204	-0.8477383519188081	0.0	0.8804648578687259	-0.8404634941450506	0.0	0.849947671470717	-0.8108546516938797	0.0	0.8314402237375654	-0.5284624449114039	0.0	0.8320630673819966	-0.46808197917324584	0.0	0.8325719084716462	-0.5058651714769274	0.0	0.7874039230709474	-0.5445300678942864	0.0	0.7719630195457191	-0.61082722755429	0.0	0.7659602375408385	-0.6794534263554559	0.0	0.8770209664735624	-0.5380077317307318	0.0	0.8977000970876398	-0.6016226825125146	0.0	0.9063153225106484	-0.6628563488969528	0.0
128	4.284900284900285	0.8358820817134516	-0.6502706463986478	0.0	0.8089684493622071	-0.6527582065507915	0.0	0.820399566118639	-0.7605964650491892	0.0	0.8344817177905325	-0.8592392490993481	0.0	0.8502995422682867	-0.8785300796808394	0.0	0.8314341389077758	-0.8747545092547281	0.0	0.8373810920628214	-0.8704425289661198	0.0	0.8622609519708582	-0.6461502209567959	0.0	0.8856213540262869	-0.7274686180873494	0.0	0.8593697752235047	-0.8083499570507747	0.0	0.8717928847254571	-0.8484302914084675	0.0	0.8851645958230996	-0.841319977529019	0.0	0.8540818134948841	-0.8137698700718526	0.0	0.8299517527386177	-0.5198658083776106	0.0	0.8304731008167946	-0.4576332716549492	0.0	0.8305728359392726	-0.4967997040556311	0.0	0.7846619686932771	-0.5372240751947415	0.0	0.7683254429325728	-0.6037762686876883	0.0	0.7630356658271803	-0.6723620514854708	0.0	0.8764415508246305	-0.5308151155923355	0.0	0.899182924399492	-0.5934205119393485	0.0	0.9088961815337551	-0.6530463227851382	0.0
